<svg enable-background="new 0 0 283.5 124" viewBox="0 0 283.5 124" xmlns="http://www.w3.org/2000/svg"><path d="m211.2 83.5c10.6 0 13.9-11.2 13.9-21.5 0-13.8-5.8-21-13.9-21-10.2 0-13.8 11.2-13.7 21.2.1 9.9 2.9 21.3 13.7 21.3zm-5.2-21.6c0-4.1 0-13.7 5.2-13.7 5.6 0 5.4 9.5 5.4 13.9 0 4.2 0 14.4-5.2 14.4-5.6-.1-5.4-10.3-5.4-14.6zm-25.6 21.6c4.3 0 8-1.7 11.5-5.4l-3.1-5.8c-2.4 2.6-4.8 4-7.7 4-2.4 0-4.4-1.4-5.6-3.8-1-2.1-1.2-4.5-1.2-7.1v-.8h18v-1.8c0-8.9-1.1-13.8-3.9-17.5-2.1-2.8-5.2-4.3-9-4.3-4 0-7.3 1.8-9.7 5.3-2.6 3.8-3.7 8.9-3.7 15.9-.1 13.4 5.2 21.3 14.4 21.3zm-.9-35.9c2 0 3.2 1.1 4 2.9.6 1.6.9 4.3.9 7.5h-10.1c.1-7.1 1.6-10.4 5.2-10.4zm52.2 34.9h7.8v-30c1.9-2.3 4.1-3.6 5.7-3.6 1 0 2 .2 2.6 1 .6.9.9 2.2.9 5.3v27.3h7.8v-30.9c0-2.7-.3-5.4-1.9-7.4-1.4-1.8-3.6-2.9-6.4-2.9-3.6 0-7.3 2.1-9.3 4.5-.1-2.1-.8-4.1-1-4.8l-7.3 1.9c.4 2.2 1 4.9 1 9.8v29.8zm-90.6-36.7c-.1-2.1-.8-4.1-1-4.8l-7.3 1.9c.4 2.2 1 4.9 1 9.8v29.7h7.8v-30c1.9-2.3 4.1-3.6 5.7-3.6 1 0 2 .2 2.6 1 .6.9.9 2.2.9 5.3v27.3h7.8v-30.8c0-2.7-.3-5.4-1.9-7.4-1.4-1.8-3.6-2.9-6.4-2.9-3.5 0-7.2 2.1-9.2 4.5zm-95.4-17.5c4.6 0 8.3-3.7 8.3-8.3s-3.7-8.3-8.3-8.3-8.3 3.7-8.3 8.3 3.7 8.3 8.3 8.3zm38.3 54.2v-30.9c0-2.7-.3-5.4-1.9-7.4-1.4-1.8-3.6-2.9-6.4-2.9-3.6 0-7.3 2.1-9.3 4.5-.1-2.1-.8-4.1-1-4.8l-7.2 2c.4 2.2 1 4.9 1 9.8v29.7h7.8v-30c1.9-2.3 4.1-3.6 5.7-3.6 1 0 2 .2 2.6 1 .6.9.9 2.2.9 5.3v27.3zm35.9-56.4c-2.9 0-5.2 2.3-5.2 5.2s2.3 5.2 5.1 5.2c2.9 0 5.2-2.3 5.2-5.2s-2.3-5.2-5.1-5.2zm-77.9 56.4h7.8v-48.7l-7.8 1zm63.7-51.6c1.4 0 2.8.5 3.7 1.2l2.2-6.1c-2.1-1.5-4.4-2.2-7.3-2.2-2 0-4.1.5-6 2-1.9 1.6-3.9 4.8-3.9 10.8 0 2.6.1 5.3.1 5.3h-2.7v6.9h2.7v33.6h8v-33.5h5.9l1.5-6.9h-7.3v-6.2c0-3 1.2-4.9 3.1-4.9zm10.2 51.6h7.9v-41.2l-7.9 1z" fill="#005da9"/><path d="m240.5 104.5c-26.4 7.8-58.5 11.2-89.9 11.2-79.7 0-131.1-23.4-134.7-54.3-1.3-11.6 7.8-22.9 23-32.5-2.7-2-4.4-5.2-4.5-8.8-22 11.6-34.4 26.8-34.4 42.2 0 34.1 60.9 62.9 151.4 61.7 31.5-.4 57.8-4.9 81.6-12.7 28.3-9.2 46.1-22.4 50.4-28.2-5.1 4.6-17.2 13.8-42.9 21.4zm-167.9-90.8c5.3-1.8 12.8-4.1 12.8-4.1 21.1-5.8 44.4-9.2 66.1-9-25-1.5-47.8 0-67.7 3.6 0 0-6.6 1.1-13.7 2.9 0 0-3.4.9-5.5 1.5s-5 1.4-5 1.4c-2 .6-4 1.3-6 2 2 2 3.2 4.6 3.3 7.6 3.5-1.6 10.2-4 15.7-5.9z" fill="#e30034"/></svg>